# xmcd CD database file
#
# Track frame offsets:
#	150
#	21483
#	31687
#	44822
#	64270
#	80185
#	82811
#	96018
#	113806
#	137750
#	155541
#	166037
#	178192
#	184165
#	191631
#	196201
#	209189
#	219814
#	227959
#	240732
#	250642
#	254328
#	269863
#	281784
#	299225
#	309468
#
# Disc length: 4399 seconds
#
# Revision: 1
# Processed by: cddbd v1.5.2PL0 Copyright (c) Steve Scherf et al.
# Submitted via: CDex 1.70beta2
#
DISCID=92112d1a
DTITLE=Georg Boeﬂner - Mosaic Music Pictures
DYEAR=2010
DGENRE=Jazz
TTITLE0=Scruffy to the Top-Level Conference
TTITLE1=Panorama
TTITLE2=45∞
TTITLE3=The Journey
TTITLE4=That's her
TTITLE5=Zappelfritz
TTITLE6=Christmas Waltz
TTITLE7=Feather in the Wind
TTITLE8=The Eyes of a Cow
TTITLE9=Waltzin' Heartbeat
TTITLE10=Triolog
TTITLE11=Rhino's Walk
TTITLE12=The Connection
TTITLE13=Three in Motion
TTITLE14=September Idee
TTITLE15=Maiduft
TTITLE16=Tarot
TTITLE17=Red Saloon Party
TTITLE18=Allein damit
TTITLE19=Miss K.
TTITLE20=Kreuzung
TTITLE21=Fassade und Kern
TTITLE22=Our Theme
TTITLE23=Chant with Burt
TTITLE24=Surfin' on Confidence
TTITLE25=The Store Smell
EXTD=YEAR: 2010
EXTT0=
EXTT1=
EXTT2=
EXTT3=
EXTT4=
EXTT5=
EXTT6=
EXTT7=
EXTT8=
EXTT9=
EXTT10=
EXTT11=
EXTT12=
EXTT13=
EXTT14=
EXTT15=
EXTT16=
EXTT17=
EXTT18=
EXTT19=
EXTT20=
EXTT21=
EXTT22=
EXTT23=
EXTT24=
EXTT25=
PLAYORDER=
